<svg width="28" height="25" viewBox="0 0 28 25" fill="none" xmlns="http://www.w3.org/2000/svg">
<path d="M27.8963 12.6685C27.6758 12.3476 22.3767 4.83301 13.9999 4.83301C6.81197 4.83301 0.406868 12.3045 0.137363 12.623C-0.0457878 12.84 -0.0457878 13.1585 0.137363 13.3766C0.406868 13.6951 6.81197 21.1666 13.9999 21.1666C21.1879 21.1666 27.5929 13.6951 27.8624 13.3766C28.0317 13.176 28.0468 12.8855 27.8963 12.6685ZM13.9999 20C8.23769 20 2.7589 14.5049 1.36709 12.9998C2.75661 11.4937 8.22954 5.99973 13.9999 5.99973C20.7422 5.99973 25.5011 11.4867 26.6631 12.9683C25.3214 14.4255 19.8112 20 13.9999 20Z" fill="url(#paint0_linear)"/>
<path d="M13.9999 8.33307C11.4262 8.33307 9.33321 10.4261 9.33321 12.9998C9.33321 15.5735 11.4262 17.6665 13.9999 17.6665C16.5736 17.6665 18.6667 15.5735 18.6667 12.9998C18.6667 10.4261 16.5736 8.33307 13.9999 8.33307ZM13.9999 16.4999C12.0703 16.4999 10.4999 14.9295 10.4999 12.9999C10.4999 11.0702 12.0703 9.49979 13.9999 9.49979C15.9296 9.49979 17.5 11.0702 17.5 12.9999C17.5 14.9295 15.9296 16.4999 13.9999 16.4999Z" fill="url(#paint1_linear)"/>
<path d="M24.3913 0.738224C24.6829 0.446633 25.1556 0.446634 25.4472 0.738225C25.7388 1.02982 25.7388 1.50258 25.4472 1.79417L2.75219 24.4892C2.4606 24.7808 1.98784 24.7808 1.69625 24.4892C1.40465 24.1976 1.40465 23.7249 1.69624 23.4333L24.3913 0.738224Z" fill="url(#paint2_linear)"/>
<defs>
<linearGradient id="paint0_linear" x1="4.14983" y1="0.519531" x2="13.7425" y2="27.9122" gradientUnits="userSpaceOnUse">
<stop stop-color="#4DC9FC"/>
<stop offset="1" stop-color="#9729EB"/>
</linearGradient>
<linearGradient id="paint1_linear" x1="4.14983" y1="0.519531" x2="13.7425" y2="27.9122" gradientUnits="userSpaceOnUse">
<stop stop-color="#4DC9FC"/>
<stop offset="1" stop-color="#9729EB"/>
</linearGradient>
<linearGradient id="paint2_linear" x1="4.14983" y1="0.519531" x2="13.7425" y2="27.9122" gradientUnits="userSpaceOnUse">
<stop stop-color="#4DC9FC"/>
<stop offset="1" stop-color="#9729EB"/>
</linearGradient>
</defs>
</svg>
