<svg width="28" height="18" viewBox="0 0 28 18" fill="none" xmlns="http://www.w3.org/2000/svg">
<path d="M27.8963 8.66751C27.6758 8.34665 22.3767 0.832031 13.9999 0.832031C6.81197 0.832031 0.406868 8.3035 0.137363 8.622C-0.0457878 8.83901 -0.0457878 9.15751 0.137363 9.37566C0.406868 9.69417 6.81197 17.1656 13.9999 17.1656C21.1879 17.1656 27.5929 9.69417 27.8624 9.37566C28.0317 9.17501 28.0468 8.88451 27.8963 8.66751ZM13.9999 15.999C8.23769 15.999 2.7589 10.5039 1.36709 8.99886C2.75661 7.49269 8.22955 1.99875 13.9999 1.99875C20.7422 1.99875 25.5011 7.48569 26.6631 8.96736C25.3214 10.4245 19.8112 15.999 13.9999 15.999Z" fill="url(#paint0_linear)"/>
<path d="M13.9999 4.33206C11.4262 4.33206 9.3332 6.4251 9.3332 8.9988C9.3332 11.5725 11.4262 13.6655 13.9999 13.6655C16.5736 13.6655 18.6667 11.5725 18.6667 8.9988C18.6667 6.4251 16.5736 4.33206 13.9999 4.33206ZM13.9999 12.4989C12.0703 12.4989 10.4999 10.9285 10.4999 8.99885C10.4999 7.06917 12.0703 5.49879 13.9999 5.49879C15.9296 5.49879 17.5 7.06917 17.5 8.99885C17.5 10.9285 15.9296 12.4989 13.9999 12.4989Z" fill="url(#paint1_linear)"/>
<defs>
<linearGradient id="paint0_linear" x1="4.14983" y1="0.832031" x2="8.80031" y2="20.4981" gradientUnits="userSpaceOnUse">
<stop stop-color="#4DC9FC"/>
<stop offset="1" stop-color="#9729EB"/>
</linearGradient>
<linearGradient id="paint1_linear" x1="4.14983" y1="0.832031" x2="8.80031" y2="20.4981" gradientUnits="userSpaceOnUse">
<stop stop-color="#4DC9FC"/>
<stop offset="1" stop-color="#9729EB"/>
</linearGradient>
</defs>
</svg>
