<svg width="20" height="20" viewBox="0 0 20 20" fill="none" xmlns="http://www.w3.org/2000/svg">
<path d="M10 20C15.5228 20 20 15.5228 20 10C20 4.47715 15.5228 0 10 0C4.47715 0 0 4.47715 0 10C0 15.5228 4.47715 20 10 20Z" fill="#039BE5"/>
<path d="M4.57587 9.78351L14.2175 6.06601C14.665 5.90434 15.0559 6.17517 14.9109 6.85184L14.9117 6.85101L13.27 14.5852C13.1484 15.1335 12.8225 15.2668 12.3667 15.0085L9.8667 13.166L8.66087 14.3277C8.52754 14.461 8.41504 14.5735 8.1567 14.5735L8.3342 12.0293L12.9675 7.84351C13.1692 7.66601 12.9225 7.56601 12.6567 7.74267L6.93087 11.3477L4.46254 10.5777C3.9267 10.4077 3.91504 10.0418 4.57587 9.78351Z" fill="white"/>
</svg>
