<svg width="20" height="20" viewBox="0 0 20 20" fill="none" xmlns="http://www.w3.org/2000/svg">
<g clip-path="url(#clip0)">
<path d="M9.78584 15.6554H10.9809C10.9809 15.6554 11.3422 15.6154 11.526 15.4167C11.696 15.2342 11.6897 14.8916 11.6897 14.8916C11.6897 14.8916 11.666 13.2878 12.411 13.0515C13.1448 12.819 14.0874 14.6016 15.0862 15.2879C15.8413 15.8067 16.4151 15.6929 16.4151 15.6929L19.0865 15.6554C19.0865 15.6554 20.4841 15.5692 19.8216 14.4704C19.7678 14.3803 19.4353 13.6578 17.8352 12.1727C16.1601 10.6176 16.3851 10.8701 18.4027 8.18114C19.6316 6.54352 20.1228 5.54344 19.9691 5.11591C19.8228 4.70838 18.919 4.81589 18.919 4.81589L15.9138 4.83339C15.9138 4.83339 15.6913 4.80339 15.525 4.90214C15.3637 4.99965 15.26 5.22467 15.26 5.22467C15.26 5.22467 14.7837 6.49226 14.1487 7.56984C12.8098 9.84376 12.2735 9.96377 12.0548 9.82251C11.546 9.49373 11.6735 8.49991 11.6735 7.79486C11.6735 5.59094 12.0073 4.67213 11.0222 4.43461C10.6947 4.35585 10.4546 4.30335 9.61833 4.2946C8.54575 4.28335 7.63693 4.29835 7.12314 4.54962C6.78062 4.71713 6.51685 5.09091 6.67811 5.11216C6.87688 5.13841 7.32691 5.23342 7.56568 5.55844C7.87445 5.97722 7.8632 6.91979 7.8632 6.91979C7.8632 6.91979 8.04071 9.51374 7.44942 9.83626C7.04314 10.0575 6.48685 9.60624 5.29301 7.54234C4.68172 6.48601 4.21918 5.31717 4.21918 5.31717C4.21918 5.31717 4.13043 5.09966 3.97167 4.9834C3.77915 4.84214 3.50913 4.79714 3.50913 4.79714L0.651424 4.81464C0.651424 4.81464 0.222643 4.82714 0.0651312 5.0134C-0.074879 5.17966 0.0538804 5.52219 0.0538804 5.52219C0.0538804 5.52219 2.29154 10.7563 4.82423 13.3953C7.14815 15.8142 9.78584 15.6554 9.78584 15.6554Z" fill="#1E88E5"/>
</g>
<defs>
<clipPath id="clip0">
<rect width="20" height="20" fill="white"/>
</clipPath>
</defs>
</svg>
