<svg width="41" height="40" viewBox="0 0 41 40" fill="none" xmlns="http://www.w3.org/2000/svg">
<path d="M27.1596 6.64167H29.8112C30.3635 6.64167 30.8112 6.19395 30.8112 5.64167V1.15352C30.8112 0.653897 30.4421 0.233811 29.9444 0.189857C28.9376 0.100945 27.3068 0 25.4912 0C20.2262 0 16.6196 3.31167 16.6196 9.39833V14C16.6196 14.5523 16.1719 15 15.6196 15H11.8096C11.2573 15 10.8096 15.4477 10.8096 16V21.11C10.8096 21.6623 11.2573 22.11 11.8096 22.11H15.6196C16.1719 22.11 16.6196 22.5577 16.6196 23.11V39C16.6196 39.5523 17.0673 40 17.6196 40H22.7429C23.2952 40 23.7429 39.5523 23.7429 39V23.1117C23.7429 22.5594 24.1906 22.1117 24.7429 22.1117H28.4347C28.9392 22.1117 29.3647 21.7358 29.427 21.2352L30.0631 16.1252C30.1373 15.5285 29.672 15.0017 29.0707 15.0017H24.7412C24.189 15.0017 23.7412 14.554 23.7412 14.0017V10.1033C23.7429 8.04833 24.2962 6.64167 27.1596 6.64167Z" fill="url(#paint0_diamond)"/>
<defs>
<radialGradient id="paint0_diamond" cx="0" cy="0" r="1" gradientUnits="userSpaceOnUse" gradientTransform="translate(30.8112) rotate(90) scale(75.9949 38.0006)">
<stop stop-color="#85D2FE"/>
<stop offset="0.50984" stop-color="#A04DE1"/>
<stop offset="1" stop-color="#9E3BEA"/>
</radialGradient>
</defs>
</svg>
