<svg width="20" height="20" viewBox="0 0 20 20" fill="none" xmlns="http://www.w3.org/2000/svg">
<path d="M12.5442 13.5857L10.3103 11.1223C10.3103 11.1223 9.43597 10.6096 8.95836 10.4309C9.98483 9.68888 10.6559 8.46878 10.6559 7.09197C10.6559 4.83564 8.85369 3 6.6384 3C4.42312 3 2.62089 4.83564 2.62089 7.09197C2.62089 8.46878 3.29198 9.68888 4.31844 10.4309C2.13398 11.2482 0.458559 13.1917 0.0239858 15.6386C-0.0562759 16.091 0.0670158 16.5525 0.36197 16.9047C0.654177 17.2533 1.08051 17.4532 1.53172 17.4532H11.7451C12.1963 17.4532 12.6226 17.2533 12.9148 16.9047C13.2099 16.5525 13.3331 16.091 13.2528 15.6386C13.1993 15.3368 13.1266 15.0428 13.0368 14.7576L12.5442 13.5857ZM3.79278 7.09197C3.79278 5.48186 5.06933 4.17188 6.6384 4.17188C8.20747 4.17188 9.48418 5.48186 9.48418 7.09197C9.48418 8.70209 8.20747 10.0121 6.6384 10.0121C5.06933 10.0121 3.79278 8.70209 3.79278 7.09197ZM12.0167 16.1519C11.9761 16.2003 11.887 16.2813 11.7451 16.2813H1.53172C1.38981 16.2813 1.3007 16.2003 1.26011 16.1519C1.21799 16.1016 1.15116 15.9945 1.17786 15.8434C1.6573 13.1436 3.95376 11.1839 6.6384 11.1839C9.32305 11.1839 11.6197 13.1436 12.0989 15.8434C12.1258 15.9945 12.059 16.1016 12.0167 16.1519ZM12.5442 13.5857C12.1975 12.9361 11.8446 12.4408 11.23 11.8563C10.897 11.5396 10.3103 11.1223 10.3103 11.1223L12.5442 13.5857Z" fill="#46CF16"/>
<path d="M19.9792 13.1975C19.649 11.3377 18.4148 9.84449 16.7875 9.15189C17.5097 8.54626 17.9709 7.62921 17.9709 6.60472C17.9709 4.7851 16.5165 3.30469 14.7286 3.30469C12.9407 3.30469 11.4862 4.78495 11.4862 6.60472C11.4862 7.62982 11.948 8.54718 12.6709 9.15296C12.4012 9.26801 12.1398 9.40534 11.8901 9.5654C11.261 9.96885 10.7239 10.5002 10.3099 11.1224C9.88863 10.8426 11.3332 12.8933 11.3332 12.8933C11.3332 12.8933 13.1263 15.0429 13.0364 14.7577H18.6816C19.07 14.7577 19.4372 14.5856 19.6886 14.2856C19.9422 13.983 20.0481 13.5863 19.9792 13.1975ZM12.6581 6.60472C12.6581 5.43116 13.5869 4.47657 14.7286 4.47657C15.8703 4.47657 16.7991 5.43116 16.7991 6.60472C16.7991 7.77813 15.8703 8.73273 14.7286 8.73273C13.5869 8.73273 12.6581 7.77813 12.6581 6.60472ZM18.7905 13.5329C18.7739 13.5527 18.7377 13.5858 18.6817 13.5858H12.5438C12.1971 12.9362 11.7519 12.3535 11.2296 11.8564C11.9928 10.6422 13.2973 9.90461 14.7286 9.90461C16.7426 9.90461 18.4653 11.3756 18.8253 13.4024C18.8366 13.4663 18.8084 13.5117 18.7905 13.5329Z" fill="#252427"/>
</svg>
