<svg width="15" height="16" viewBox="0 0 15 16" fill="none" xmlns="http://www.w3.org/2000/svg">
<g clip-path="url(#clip0)">
<path d="M10.3125 0.5H4.6875C2.09906 0.5 0 2.59906 0 5.1875V10.8125C0 13.4009 2.09906 15.5 4.6875 15.5H10.3125C12.9009 15.5 15 13.4009 15 10.8125V5.1875C15 2.59906 12.9009 0.5 10.3125 0.5ZM13.5938 10.8125C13.5938 12.6219 12.1219 14.0938 10.3125 14.0938H4.6875C2.87812 14.0938 1.40625 12.6219 1.40625 10.8125V5.1875C1.40625 3.37812 2.87812 1.90625 4.6875 1.90625H10.3125C12.1219 1.90625 13.5938 3.37812 13.5938 5.1875V10.8125Z" fill="url(#paint0_linear)"/>
<path d="M7.5 4.25C5.42906 4.25 3.75 5.92906 3.75 8C3.75 10.0709 5.42906 11.75 7.5 11.75C9.57094 11.75 11.25 10.0709 11.25 8C11.25 5.92906 9.57094 4.25 7.5 4.25ZM7.5 10.3438C6.20812 10.3438 5.15625 9.29187 5.15625 8C5.15625 6.70719 6.20812 5.65625 7.5 5.65625C8.79187 5.65625 9.84375 6.70719 9.84375 8C9.84375 9.29187 8.79187 10.3438 7.5 10.3438Z" fill="url(#paint1_linear)"/>
<path d="M11.5309 4.46675C11.8069 4.46675 12.0306 4.24303 12.0306 3.96706C12.0306 3.69109 11.8069 3.46738 11.5309 3.46738C11.255 3.46738 11.0312 3.69109 11.0312 3.96706C11.0312 4.24303 11.255 4.46675 11.5309 4.46675Z" fill="url(#paint2_linear)"/>
</g>
<defs>
<linearGradient id="paint0_linear" x1="1.37311" y1="14.127" x2="13.6269" y2="1.87302" gradientUnits="userSpaceOnUse">
<stop stop-color="#FFC107"/>
<stop offset="0.507" stop-color="#F44336"/>
<stop offset="0.99" stop-color="#9C27B0"/>
</linearGradient>
<linearGradient id="paint1_linear" x1="4.84842" y1="10.6516" x2="10.1516" y2="5.34842" gradientUnits="userSpaceOnUse">
<stop stop-color="#FFC107"/>
<stop offset="0.507" stop-color="#F44336"/>
<stop offset="0.99" stop-color="#9C27B0"/>
</linearGradient>
<linearGradient id="paint2_linear" x1="11.1776" y1="4.32045" x2="11.8842" y2="3.61377" gradientUnits="userSpaceOnUse">
<stop stop-color="#FFC107"/>
<stop offset="0.507" stop-color="#F44336"/>
<stop offset="0.99" stop-color="#9C27B0"/>
</linearGradient>
<clipPath id="clip0">
<rect width="15" height="15" fill="white" transform="translate(0 0.5)"/>
</clipPath>
</defs>
</svg>
