<svg width="15" height="16" viewBox="0 0 15 16" fill="none" xmlns="http://www.w3.org/2000/svg">
<g clip-path="url(#clip0)">
<path d="M13.2971 14.6002H1.7029C0.763983 14.6002 0 13.8363 0 12.8973V3.06746C0 2.12855 0.763983 1.36456 1.7029 1.36456H13.2971C14.236 1.36456 15 2.12855 15 3.06746V12.8973C15 13.8363 14.236 14.6002 13.2971 14.6002ZM1.7029 1.87181C1.04365 1.87181 0.507246 2.40821 0.507246 3.06746V12.8973C0.507246 13.5566 1.04365 14.093 1.7029 14.093H13.2971C13.9564 14.093 14.4928 13.5566 14.4928 12.8973V3.06746C14.4928 2.40821 13.9564 1.87181 13.2971 1.87181H1.7029Z" fill="#9729EB"/>
<path d="M12.7112 10.7267H8.72579C8.58568 10.7267 8.47217 10.6132 8.47217 10.4731C8.47217 10.3331 8.58568 10.2195 8.72579 10.2195H12.7112C12.8511 10.2195 12.9648 10.3331 12.9648 10.4731C12.9648 10.6132 12.8513 10.7267 12.7112 10.7267Z" fill="#9729EB"/>
<path d="M12.7112 12.5632H8.72579C8.58568 12.5632 8.47217 12.4496 8.47217 12.3095C8.47217 12.1696 8.58568 12.0559 8.72579 12.0559H12.7112C12.8511 12.0559 12.9648 12.1696 12.9648 12.3095C12.9648 12.4496 12.8513 12.5632 12.7112 12.5632Z" fill="#9729EB"/>
<path d="M12.7112 7.06132H8.72579C8.58568 7.06132 8.47217 6.94782 8.47217 6.8077C8.47217 6.66773 8.58568 6.55408 8.72579 6.55408H12.7112C12.8511 6.55408 12.9648 6.66773 12.9648 6.8077C12.9648 6.94782 12.8513 7.06132 12.7112 7.06132Z" fill="#9729EB"/>
<path d="M12.7112 8.89403H8.72579C8.58568 8.89403 8.47217 8.78052 8.47217 8.6404C8.47217 8.50043 8.58568 8.38678 8.72579 8.38678H12.7112C12.8511 8.38678 12.9648 8.50043 12.9648 8.6404C12.9648 8.78052 12.8513 8.89403 12.7112 8.89403Z" fill="#9729EB"/>
<path d="M14.7464 4.76024H0.253623C0.113508 4.76024 0 4.64673 0 4.50661C0 4.3665 0.113508 4.25299 0.253623 4.25299H14.7464C14.8865 4.25299 15 4.3665 15 4.50661C15 4.64673 14.8865 4.76024 14.7464 4.76024Z" fill="#9729EB"/>
<path d="M3.65553 3.8574C3.22032 3.8574 2.86621 3.50344 2.86621 3.06823C2.86621 2.63302 3.22032 2.27905 3.65553 2.27905C4.09074 2.27905 4.4447 2.63302 4.4447 3.06823C4.4447 3.50344 4.09074 3.8574 3.65553 3.8574ZM3.65553 2.7863C3.49999 2.7863 3.37346 2.91283 3.37346 3.06823C3.37346 3.22363 3.49999 3.35016 3.65553 3.35016C3.81093 3.35016 3.93746 3.22363 3.93746 3.06823C3.93746 2.91283 3.81093 2.7863 3.65553 2.7863Z" fill="#9729EB"/>
<path d="M1.82824 3.8574C1.39317 3.8574 1.03906 3.50344 1.03906 3.06823C1.03906 2.63302 1.39317 2.27905 1.82824 2.27905C2.26345 2.27905 2.61756 2.63302 2.61756 3.06823C2.61756 3.50344 2.26345 3.8574 1.82824 3.8574ZM1.82824 2.7863C1.67284 2.7863 1.54631 2.91283 1.54631 3.06823C1.54631 3.22363 1.67284 3.35016 1.82824 3.35016C1.98378 3.35016 2.11031 3.22363 2.11031 3.06823C2.11031 2.91283 1.98378 2.7863 1.82824 2.7863Z" fill="#9729EB"/>
<path d="M5.48449 3.8574C5.04928 3.8574 4.69531 3.50344 4.69531 3.06823C4.69531 2.63302 5.04928 2.27905 5.48449 2.27905C5.9197 2.27905 6.27381 2.63302 6.27381 3.06823C6.27381 3.50344 5.9197 3.8574 5.48449 3.8574ZM5.48449 2.7863C5.32895 2.7863 5.20256 2.91283 5.20256 3.06823C5.20256 3.22363 5.32909 3.35016 5.48449 3.35016C5.64003 3.35016 5.76656 3.22363 5.76656 3.06823C5.76656 2.91283 5.64003 2.7863 5.48449 2.7863Z" fill="#9729EB"/>
<path d="M6.81259 12.5623H2.21114C2.07103 12.5623 1.95752 12.4488 1.95752 12.3087V6.8077C1.95752 6.66773 2.07103 6.55408 2.21114 6.55408H6.81259C6.95271 6.55408 7.06622 6.66773 7.06622 6.8077V12.3087C7.06622 12.4488 6.95271 12.5623 6.81259 12.5623ZM2.46477 12.0551H6.55897V7.06132H2.46477V12.0551Z" fill="#9729EB"/>
</g>
<defs>
<clipPath id="clip0">
<rect width="15" height="15" fill="white" transform="translate(0 0.5)"/>
</clipPath>
</defs>
</svg>
