<svg width="15" height="16" viewBox="0 0 15 16" fill="none" xmlns="http://www.w3.org/2000/svg">
<path d="M14.5457 2.81729C14.7963 2.81729 15.0002 2.61339 15.0002 2.36272V1.42332C15.0002 1.17266 14.7963 0.96875 14.5457 0.96875H0.454814C0.20415 0.96875 0.000244141 1.17269 0.000244141 1.42332V2.3627C0.000244141 2.61336 0.20415 2.81727 0.454814 2.81727H0.469932V10.8323H0.454814C0.20415 10.8323 0.000244141 11.0363 0.000244141 11.2869V11.7566C0.000244141 12.0073 0.20415 12.2112 0.454814 12.2112H7.28052V13.6867C7.00782 13.7786 6.81083 14.0366 6.81083 14.34C6.81083 14.7201 7.12012 15.0294 7.50024 15.0294C7.88037 15.0294 8.18966 14.7201 8.18966 14.34C8.18966 14.0367 7.99266 13.7787 7.71997 13.6867V12.2112H14.5457C14.7963 12.2112 15.0002 12.0073 15.0002 11.7566V11.2869C15.0002 11.0363 14.7963 10.8324 14.5457 10.8324H14.5306V2.81729H14.5457ZM7.50024 14.5899C7.3624 14.5899 7.25028 14.4778 7.25028 14.34C7.25028 14.2021 7.36243 14.09 7.50024 14.09C7.63806 14.09 7.7502 14.2021 7.7502 14.34C7.7502 14.4778 7.63808 14.5899 7.50024 14.5899ZM14.0911 10.8323H13.6063C13.4849 10.8323 13.3866 10.9307 13.3866 11.0521C13.3866 11.1734 13.4849 11.2718 13.6063 11.2718H14.5457C14.554 11.2718 14.5608 11.2786 14.5608 11.2869V11.7566C14.5608 11.765 14.554 11.7717 14.5457 11.7717H0.454814C0.446465 11.7717 0.439697 11.765 0.439697 11.7566V11.2869C0.439697 11.2786 0.446465 11.2718 0.454814 11.2718H13.7252C13.8466 11.2718 13.945 11.1734 13.945 11.0521C13.945 10.9307 13.8466 10.8323 13.7252 10.8323H0.909385V2.81729H1.39419C1.51554 2.81729 1.61392 2.71892 1.61392 2.59757C1.61392 2.47622 1.51554 2.37784 1.39419 2.37784H0.454814C0.446465 2.37784 0.439697 2.37107 0.439697 2.36272V1.42332C0.439697 1.41497 0.446465 1.4082 0.454814 1.4082H14.5457C14.554 1.4082 14.5608 1.41497 14.5608 1.42332V2.3627C14.5608 2.37104 14.554 2.37781 14.5457 2.37781H1.31997C1.19862 2.37781 1.10024 2.47619 1.10024 2.59754C1.10024 2.71889 1.19862 2.81727 1.31997 2.81727H14.0911V10.8323Z" fill="#9729EB"/>
<path d="M5.74824 9.02802C5.88473 9.11237 6.0379 9.1549 6.19168 9.1549C6.32046 9.1549 6.44966 9.12508 6.56984 9.06499L9.54602 7.57689C9.83395 7.43292 10.0128 7.14353 10.0128 6.82161C10.0129 6.4997 9.83398 6.21028 9.54605 6.06628L6.56987 4.57821C6.3062 4.44637 5.99905 4.46017 5.74827 4.61515C5.49749 4.77013 5.34778 5.03867 5.34778 5.33348V8.30966C5.34772 8.60448 5.49746 8.87301 5.74824 9.02802ZM5.78717 5.33348C5.78717 5.18998 5.85719 5.06442 5.97924 4.98898C6.04557 4.94799 6.11823 4.92737 6.19138 4.92737C6.25288 4.92737 6.31466 4.94196 6.37329 4.97125L9.34944 6.45933C9.48965 6.52944 9.57332 6.66488 9.57332 6.82159C9.57332 6.97829 9.48962 7.11373 9.34944 7.18381L6.37326 8.67192C6.24491 8.73605 6.10126 8.72963 5.97921 8.65419C5.85716 8.57875 5.78714 8.45319 5.78714 8.30966V5.33348H5.78717Z" fill="#9729EB"/>
</svg>
