<svg width="15" height="16" viewBox="0 0 15 16" fill="none" xmlns="http://www.w3.org/2000/svg">
<g clip-path="url(#clip0)">
<path d="M13.7485 3.62448H10.6235V2.99946C10.6235 2.31008 10.0629 1.74945 9.37353 1.74945H5.62353C4.93415 1.74945 4.37352 2.31005 4.37352 2.99946V3.62445H1.24854C0.559131 3.62448 -0.00146484 4.18508 -0.00146484 4.87446V12.9994C-0.00146484 13.6888 0.559131 14.2495 1.24854 14.2495H13.7486C14.4379 14.2495 14.9986 13.6889 14.9986 12.9994V4.87446C14.9985 4.18508 14.4379 3.62448 13.7485 3.62448ZM4.99854 2.99946C4.99854 2.65493 5.279 2.37447 5.62353 2.37447H9.37353C9.71807 2.37447 9.99852 2.65493 9.99852 2.99946V3.62445H4.99854V2.99946ZM14.3735 12.9995C14.3735 13.344 14.0931 13.6245 13.7486 13.6245H1.24854C0.904014 13.6245 0.623555 13.344 0.623555 12.9995V8.45064C0.808154 8.55828 1.01985 8.62449 1.24854 8.62449H6.24855V9.56199C6.24855 9.73472 6.38833 9.8745 6.56106 9.8745H8.43606C8.6088 9.8745 8.74857 9.73472 8.74857 9.56199V8.62449H13.7486C13.9773 8.62449 14.189 8.55831 14.3736 8.45064V12.9995H14.3735ZM6.87354 9.24948V7.99947H8.12355V9.24948H6.87354ZM14.3735 7.37448C14.3735 7.71901 14.0931 7.99947 13.7486 7.99947H8.74854V7.68696C8.74854 7.51423 8.60877 7.37445 8.43603 7.37445H6.56103C6.3883 7.37445 6.24852 7.51423 6.24852 7.68696V7.99947H1.24854C0.904014 7.99947 0.623555 7.71901 0.623555 7.37448V4.87449C0.623555 4.52996 0.904014 4.2495 1.24854 4.2495H13.7486C14.0931 4.2495 14.3735 4.52996 14.3735 4.87449V7.37448Z" fill="#252427"/>
</g>
<defs>
<clipPath id="clip0">
<rect width="15" height="15" fill="white" transform="translate(0 0.5)"/>
</clipPath>
</defs>
</svg>
