<svg width="15" height="16" viewBox="0 0 15 16" fill="none" xmlns="http://www.w3.org/2000/svg">
<g clip-path="url(#clip0)">
<path d="M8.49707 6.87219H6.49707C6.35901 6.87219 6.24707 6.98413 6.24707 7.12219V14.1222C6.24707 14.2603 6.35901 14.3722 6.49707 14.3722H8.49707C8.63513 14.3722 8.74707 14.2603 8.74707 14.1222V7.12219C8.74707 6.9841 8.63513 6.87219 8.49707 6.87219ZM8.24707 13.8722H6.74707V7.37219H8.24707V13.8722Z" fill="#9729EB"/>
<path d="M14.5024 5.87219H12.5024C12.3644 5.87219 12.2524 5.98413 12.2524 6.12219V14.1222C12.2524 14.2603 12.3644 14.3722 12.5024 14.3722H14.5024C14.6405 14.3722 14.7524 14.2603 14.7524 14.1222V6.12219C14.7524 5.9841 14.6405 5.87219 14.5024 5.87219ZM14.2524 13.8722H12.7524V6.37219H14.2524V13.8722Z" fill="#9729EB"/>
<path d="M11.499 11.3669H9.49902C9.36096 11.3669 9.24902 11.4789 9.24902 11.6169V14.1169C9.24902 14.255 9.36096 14.3669 9.49902 14.3669H11.499C11.6371 14.3669 11.749 14.255 11.749 14.1169V11.6169C11.749 11.4788 11.6371 11.3669 11.499 11.3669ZM11.249 13.8669H9.74902V11.8669H11.249V13.8669Z" fill="#9729EB"/>
<path d="M2.49756 7.87213H0.497559C0.359496 7.87213 0.247559 7.98407 0.247559 8.12213V14.1221C0.247559 14.2602 0.359496 14.3721 0.497559 14.3721H2.49756C2.63562 14.3721 2.74756 14.2602 2.74756 14.1221V8.12213C2.74756 7.98404 2.63562 7.87213 2.49756 7.87213ZM2.24756 13.8721H0.747559V8.37213H2.24756V13.8721Z" fill="#9729EB"/>
<path d="M5.50098 9.36694H3.50098C3.36291 9.36694 3.25098 9.47888 3.25098 9.61694V14.1169C3.25098 14.255 3.36291 14.3669 3.50098 14.3669H5.50098C5.63904 14.3669 5.75098 14.255 5.75098 14.1169V9.61694C5.75098 9.47885 5.63904 9.36694 5.50098 9.36694ZM5.25098 13.8669H3.75098V9.86694H5.25098V13.8669Z" fill="#9729EB"/>
<path d="M13.5134 1.60128C12.9572 1.59728 12.503 2.04497 12.499 2.60125C12.4969 2.88213 12.6123 3.1511 12.8172 3.34322L10.7422 7.14897C10.5542 7.09694 10.3546 7.10616 10.1722 7.17522L8.2419 4.2785C8.61175 3.86835 8.57906 3.236 8.16887 2.86619C7.75868 2.49638 7.12637 2.52903 6.75656 2.93922C6.48484 3.2406 6.42215 3.67628 6.5979 4.04203L5.08015 5.30525C4.66378 5.00153 4.08378 5.0695 3.7489 5.46125L2.47615 4.82475C2.59159 4.28466 2.24731 3.75325 1.70725 3.63785C1.16715 3.52241 0.635747 3.86666 0.520341 4.40675C0.404904 4.94685 0.749154 5.47825 1.28925 5.59366C1.35815 5.60838 1.42843 5.61578 1.4989 5.61575C1.78718 5.61482 2.06084 5.48875 2.2489 5.27025L3.52165 5.90675C3.40156 6.44582 3.74122 6.98019 4.28028 7.10028C4.81934 7.22038 5.35372 6.88072 5.47381 6.34166C5.52265 6.12244 5.49628 5.89316 5.3989 5.69075L6.91665 4.4275C7.17825 4.6211 7.51975 4.66997 7.82515 4.5575L9.7549 7.45425C9.38606 7.86532 9.42031 8.49757 9.8314 8.86641C10.2425 9.23525 10.8747 9.201 11.2436 8.78991C11.6079 8.38388 11.5796 7.76082 11.1799 7.3895L13.2549 3.58375C13.3346 3.60457 13.4166 3.61532 13.4989 3.61575C14.0552 3.61975 14.5094 3.17207 14.5134 2.61578C14.5174 2.0595 14.0697 1.60532 13.5134 1.60128ZM1.4989 5.11575C1.22275 5.11575 0.998904 4.89191 0.998904 4.61575C0.998904 4.3396 1.22275 4.11575 1.4989 4.11575C1.77506 4.11575 1.9989 4.3396 1.9989 4.61575C1.9989 4.89191 1.77506 5.11575 1.4989 5.11575ZM4.4989 6.61575C4.22275 6.61575 3.9989 6.39191 3.9989 6.11575C3.9989 5.8396 4.22275 5.61575 4.4989 5.61575C4.77506 5.61575 4.9989 5.8396 4.9989 6.11575C4.9989 6.39191 4.77506 6.61575 4.4989 6.61575ZM7.4989 4.11575C7.22275 4.11575 6.9989 3.89191 6.9989 3.61575C6.9989 3.3396 7.22275 3.11575 7.4989 3.11575C7.77506 3.11575 7.9989 3.3396 7.9989 3.61575C7.9989 3.89191 7.77506 4.11575 7.4989 4.11575ZM10.4989 8.61575C10.2227 8.61575 9.9989 8.39191 9.9989 8.11575C9.9989 7.8396 10.2227 7.61575 10.4989 7.61575C10.7751 7.61575 10.9989 7.8396 10.9989 8.11575C10.9989 8.39191 10.7751 8.61575 10.4989 8.61575ZM13.4989 3.11575C13.2227 3.11575 12.9989 2.89191 12.9989 2.61575C12.9989 2.3396 13.2227 2.11575 13.4989 2.11575C13.7751 2.11575 13.9989 2.3396 13.9989 2.61575C13.9989 2.89191 13.7751 3.11575 13.4989 3.11575Z" fill="#9729EB"/>
</g>
<defs>
<clipPath id="clip0">
<rect width="15" height="15" fill="white" transform="translate(0 0.5)"/>
</clipPath>
</defs>
</svg>
