<svg width="15" height="16" viewBox="0 0 15 16" fill="none" xmlns="http://www.w3.org/2000/svg">
<g clip-path="url(#clip0)">
<path d="M3.17415 11.5788C3.17415 11.629 3.19921 11.6758 3.24093 11.7036L3.29711 11.7411C3.34504 11.773 4.50555 12.5238 7.5 12.5238C10.4944 12.5238 11.655 11.773 11.7029 11.7411L11.7591 11.7036C11.8008 11.6758 11.8259 11.629 11.8259 11.5788V7.11832C11.8259 7.05376 11.8672 6.99644 11.9284 6.97602L13.2851 6.52378C13.3823 6.49141 13.4826 6.5637 13.4826 6.66609V8.95153C13.4826 9.01859 13.4375 9.07644 13.3755 9.10191C13.0067 9.25327 12.7462 9.61604 12.7462 10.0387V11.2693C12.7462 11.3521 12.8134 11.4193 12.8962 11.4193H14.6211C14.704 11.4193 14.7711 11.3521 14.7711 11.2693V10.0387C14.7711 9.61604 14.5106 9.25327 14.1419 9.10191C14.0798 9.07644 14.0348 9.01859 14.0348 8.95153V6.38201C14.0348 6.31744 14.0761 6.26012 14.1374 6.2397L14.5731 6.09446C14.7098 6.04888 14.7098 5.85544 14.5731 5.80986L11.5763 4.81094L11.4016 5.33483L12.8267 5.80983C12.9635 5.85541 12.9635 6.04885 12.8268 6.09443L7.54743 7.85423C7.51664 7.86449 7.48335 7.86449 7.45256 7.85423L2.17323 6.09446C2.03647 6.04888 2.03647 5.85544 2.17323 5.80986L7.45256 4.05009C7.48336 4.03983 7.51664 4.03983 7.54743 4.05009L11.4016 5.33483L11.5763 4.81094L7.54743 3.46796C7.51664 3.4577 7.48335 3.4577 7.45256 3.46796L0.426906 5.80986C0.290152 5.85544 0.290152 6.04888 0.426906 6.09446L3.07158 6.97602C3.13283 6.99644 3.17415 7.05376 3.17415 7.11832V11.5788ZM14.2189 10.0387V10.7171C14.2189 10.7999 14.1517 10.8671 14.0689 10.8671H13.4485C13.3656 10.8671 13.2985 10.7999 13.2985 10.7171V10.0387C13.2985 9.78494 13.5049 9.57851 13.7587 9.57851C14.0125 9.57851 14.2189 9.78494 14.2189 10.0387ZM3.72638 7.4024C3.72638 7.30002 3.82669 7.22772 3.92382 7.2601L7.45256 8.43636C7.48336 8.44662 7.51664 8.44662 7.54743 8.43636L11.0762 7.2601C11.1733 7.22772 11.2736 7.30002 11.2736 7.4024V9.20762C11.2736 9.29046 11.2065 9.35762 11.1236 9.35762H10.7425C10.6597 9.35762 10.5925 9.42478 10.5925 9.50762V9.75986C10.5925 9.8427 10.6597 9.90986 10.7425 9.90986H11.1236C11.2065 9.90986 11.2736 9.97701 11.2736 10.0599V10.3121C11.2736 10.3949 11.2065 10.4621 11.1236 10.4621H10.2271C10.1443 10.4621 10.0771 10.5292 10.0771 10.6121V10.8643C10.0771 10.9472 10.1443 11.0143 10.2271 11.0143H11.1236C11.2065 11.0143 11.2736 11.0815 11.2736 11.1643V11.2534C11.2736 11.3108 11.2413 11.3633 11.1889 11.3866C10.755 11.5804 9.61661 11.9715 7.5 11.9715C5.38231 11.9715 4.24378 11.58 3.81104 11.3868C3.75864 11.3634 3.72638 11.311 3.72638 11.2536V7.4024Z" fill="#9729EB"/>
</g>
<defs>
<clipPath id="clip0">
<rect width="15" height="15" fill="white" transform="translate(0 0.5)"/>
</clipPath>
</defs>
</svg>
