<svg width="15" height="16" viewBox="0 0 15 16" fill="none" xmlns="http://www.w3.org/2000/svg">
<circle cx="7.49873" cy="8.00611" r="6.1" stroke="#252427" stroke-width="0.4"/>
<path fill-rule="evenodd" clip-rule="evenodd" d="M7.07294 4.28031C6.81995 4.30946 6.56048 4.37162 6.25741 4.47574C5.92814 4.58884 5.80152 4.59673 5.75221 4.69429C5.72763 4.81681 5.85084 5.00263 5.92474 5.0369C5.99866 5.06135 6.03938 5.04835 6.14415 5.00263C6.59889 4.80416 6.99994 4.71874 7.47382 4.71938C7.85699 4.71991 8.06955 4.76198 8.3267 4.88816C8.82037 5.1304 9.06978 5.51618 9.09644 6.07867C9.11198 6.40679 9.0667 6.64343 8.9413 6.88934C8.82657 7.11436 8.65747 7.30241 8.26511 7.64132C7.33803 8.44211 7.11788 8.75123 7.01995 9.38965C7.00036 9.51742 6.98425 9.72376 6.98418 9.84816L6.98406 10.0243C6.98404 10.0519 7.00643 10.0744 7.03406 10.0744H7.20211H7.37222C7.39902 10.0744 7.42105 10.0532 7.42217 10.0265L7.43428 9.73811C7.4631 9.0514 7.63398 8.77945 8.49916 8.04361C8.97089 7.64239 9.1581 7.45222 9.30851 7.22145C9.51969 6.89741 9.59968 6.6123 9.59902 6.18619C9.59784 5.43455 9.30799 4.88503 8.73424 4.54671C8.3235 4.30449 7.71299 4.2066 7.07294 4.28031ZM7.03387 11.1793C6.88992 11.2532 6.83247 11.3556 6.81734 11.5653C6.79645 11.8553 6.88366 12.0674 7.04963 12.13C7.22243 12.1952 7.48644 12.1335 7.57954 12.0062C7.68934 11.8561 7.69641 11.4709 7.59215 11.3189C7.46259 11.13 7.23891 11.074 7.03387 11.1793Z" fill="#252427"/>
</svg>
