<svg width="15" height="16" viewBox="0 0 15 16" fill="none" xmlns="http://www.w3.org/2000/svg">
<g clip-path="url(#clip0)">
<path d="M3.83602 4.12865C3.83075 4.12339 3.82507 4.11841 3.8198 4.11329C3.81355 4.10732 3.80743 4.10121 3.80103 4.09537C3.79634 4.09097 3.79122 4.08698 3.78652 4.08272C3.77927 4.07632 3.77216 4.06992 3.76462 4.0638C3.76007 4.06025 3.75552 4.05655 3.75083 4.05299C3.74301 4.04674 3.73504 4.04019 3.72693 4.03422C3.7221 4.03067 3.71712 4.02725 3.71214 4.0237C3.70404 4.01801 3.69622 4.01218 3.68797 4.00677C3.68398 4.00407 3.67986 4.00165 3.67588 3.99909C3.66663 3.99298 3.65725 3.98686 3.64786 3.98117C3.64559 3.97989 3.64331 3.97876 3.64118 3.97762C3.62966 3.97093 3.61828 3.96425 3.60662 3.95799C3.60505 3.95714 3.60349 3.95643 3.60178 3.95557C3.58941 3.94903 3.57704 3.94263 3.56438 3.93666C3.56282 3.93595 3.56125 3.93538 3.55983 3.93467C3.54703 3.9287 3.53437 3.92301 3.52115 3.9176L3.51802 3.91632C3.48986 3.9048 3.46127 3.89442 3.43226 3.88575C3.42913 3.88489 3.42614 3.88404 3.42316 3.88319C3.41093 3.87949 3.39884 3.87622 3.38646 3.87309L3.38518 3.8728C3.37025 3.86911 3.35518 3.86569 3.3401 3.86271C3.3364 3.86199 3.33242 3.86143 3.32858 3.86071C3.31678 3.85858 3.30497 3.85631 3.29303 3.8546C3.28691 3.85375 3.2808 3.85318 3.27468 3.85232C3.26501 3.85104 3.2552 3.84976 3.24553 3.84863C3.23586 3.84763 3.22576 3.8472 3.21595 3.84649C3.20969 3.84607 3.20357 3.8455 3.19746 3.84521C3.18124 3.84436 3.16503 3.84408 3.14882 3.84393C2.61223 3.84464 2.17747 4.27955 2.17676 4.81614V5.44403C2.17676 5.56463 2.2746 5.66247 2.3952 5.66247H3.90272C4.02332 5.66247 4.12116 5.56463 4.12116 5.44403V4.81599C4.12202 4.55815 4.01948 4.31069 3.83658 4.12894L3.83602 4.12865ZM3.68398 5.22544H2.61323V4.81599C2.61337 4.59954 2.74378 4.40427 2.94388 4.3215C3.14384 4.23873 3.37409 4.28467 3.52712 4.43784C3.62781 4.53781 3.68413 4.67406 3.6837 4.81599L3.68398 5.22544Z" fill="#252427"/>
<path d="M9.98329 3.84393C9.4467 3.84464 9.01194 4.2794 9.01123 4.81614V5.44403C9.01123 5.56463 9.10908 5.66247 9.22968 5.66247H10.7369C10.8576 5.66247 10.9554 5.56463 10.9554 5.44403V4.81614C10.9552 4.2794 10.5202 3.84422 9.98329 3.84408V3.84393ZM10.5185 5.22558H9.44784V4.81614C9.44784 4.59968 9.57825 4.40441 9.77835 4.32164C9.97846 4.23887 10.2087 4.28481 10.3617 4.43798C10.4623 4.53796 10.5187 4.6742 10.5182 4.81614L10.5185 5.22558Z" fill="#252427"/>
<path d="M8.07366 6.42755H5.05878C4.93818 6.42755 4.84033 6.5254 4.84033 6.646C4.84474 7.59616 5.61613 8.36413 6.56629 8.36413C7.51631 8.36413 8.28784 7.59616 8.29211 6.646C8.29211 6.5254 8.1944 6.42755 8.07366 6.42755ZM7.47762 7.55733C7.13715 7.89809 6.63498 8.02053 6.1759 7.87476C5.71668 7.72899 5.37721 7.33931 5.29571 6.86444H7.83701C7.79221 7.12726 7.66663 7.36946 7.47762 7.55733Z" fill="#252427"/>
<path d="M11.5485 12.3034H9.72089C9.60683 11.5769 8.95305 11.0604 8.21978 11.1176C7.48664 11.1747 6.9209 11.7864 6.9209 12.5218C6.9209 13.2572 7.48664 13.8689 8.21978 13.9261C8.95305 13.9834 9.60683 13.4669 9.72089 12.7403H11.5485C13.0125 12.7387 14.199 11.5522 14.2006 10.0882V7.97142C14.8696 7.44336 15.1533 6.5636 14.919 5.74428C14.6846 4.92482 13.9785 4.32822 13.1314 4.23393V3.48671C13.1306 2.74192 12.5271 2.13849 11.7823 2.13763H1.34908C0.604427 2.13849 0.000853308 2.74192 0 3.48671V9.15979C0.000853308 9.90445 0.604427 10.5079 1.34908 10.5089H1.80901V12.9741C1.80901 13.0601 1.8595 13.1382 1.93801 13.1733C2.01651 13.2086 2.10838 13.1945 2.17266 13.1372L5.12554 10.5089H11.7823C12.5271 10.5079 13.1306 9.90445 13.1316 9.15979V8.41272C13.3501 8.38826 13.5635 8.32952 13.7639 8.23836V10.0883C13.7623 11.3111 12.7713 12.3021 11.5485 12.3034ZM8.32914 13.4935C7.79241 13.4935 7.35737 13.0584 7.35751 12.5218C7.35751 11.9851 7.79255 11.5501 8.32914 11.5502C8.86587 11.5502 9.30078 11.9852 9.30078 12.5218C9.30021 13.0583 8.86545 13.4929 8.32914 13.4935ZM12.6944 9.15979C12.6938 9.66324 12.2858 10.0714 11.7822 10.072H5.04248C4.98887 10.072 4.93724 10.0916 4.89728 10.1272L2.24591 12.4871V10.2904C2.24591 10.1697 2.1482 10.072 2.02746 10.072H1.34908C0.845486 10.0714 0.437463 9.66324 0.436894 9.15979V3.48671C0.437463 2.98312 0.845486 2.5751 1.34908 2.57453H11.7823C12.2859 2.5751 12.694 2.98312 12.6947 3.48671L12.6944 9.15979ZM13.1313 4.67424C13.9524 4.79085 14.5628 5.49384 14.5628 6.32325C14.5628 7.15267 13.9524 7.85579 13.1313 7.97227V4.67424Z" fill="#252427"/>
</g>
<defs>
<clipPath id="clip0">
<rect width="15" height="15" fill="white" transform="translate(0 0.5)"/>
</clipPath>
</defs>
</svg>
