<svg width="15" height="16" viewBox="0 0 15 16" fill="none" xmlns="http://www.w3.org/2000/svg">
<g clip-path="url(#clip0)">
<path d="M12.4977 8.82713L10.258 5.31609C10.5753 5.14933 10.7924 4.81655 10.7924 4.43385C10.7924 4.01497 10.5324 3.65589 10.1654 3.5089L10.8439 1.13676C10.8731 1.03442 10.8446 0.924287 10.7693 0.849019C10.318 0.397702 9.58366 0.397702 9.13231 0.849019C9.02435 0.956984 8.88082 1.01643 8.72814 1.01643C8.57547 1.01643 8.43193 0.956984 8.32329 0.848316L8.32186 0.84688C7.87212 0.397087 7.13904 0.395827 6.68749 0.844214L6.67908 0.852593C6.45621 1.07389 6.09422 1.07324 5.87217 0.851158L5.87003 0.849019C5.41868 0.397702 4.68434 0.397702 4.233 0.849019C4.1577 0.924346 4.12919 1.03457 4.15852 1.13697L4.83848 3.50834C4.47067 3.65495 4.20994 4.01442 4.20994 4.43388C4.20994 4.81658 4.42698 5.14936 4.74434 5.31612L2.50461 8.82713C1.63813 10.1854 1.58323 11.8398 2.35774 13.2525C3.13225 14.6653 4.55651 15.5087 6.16767 15.5087H8.83461C10.4457 15.5087 11.87 14.6653 12.6445 13.2525C13.4191 11.8398 13.3642 10.1854 12.4977 8.82713ZM5.45566 1.26336L5.4578 1.2655C5.90759 1.71526 6.64064 1.71649 7.09216 1.26817L7.10057 1.25979C7.32342 1.03849 7.6854 1.03914 7.90816 1.2619L7.90959 1.26333C8.36094 1.71465 9.09528 1.71465 9.54663 1.26333C9.73027 1.07969 10.0088 1.04737 10.2259 1.16638L9.57625 3.4377H5.42785L4.77654 1.16635C4.99359 1.04737 5.27204 1.07975 5.45566 1.26336ZM12.1307 12.9709C11.4607 14.1931 10.2285 14.9228 8.83464 14.9228H6.1677C4.77385 14.9228 3.54166 14.1931 2.8716 12.9709C2.20154 11.7486 2.24904 10.3174 2.99864 9.14226L5.36671 5.43001H6.18273V4.84404H5.20609C4.97991 4.84404 4.79591 4.66004 4.79591 4.43385C4.79591 4.20767 4.97991 4.02367 5.20609 4.02367H5.20706H9.79622C10.0224 4.02367 10.2064 4.20767 10.2064 4.43385C10.2064 4.66004 10.0224 4.84404 9.79622 4.84404H6.18273V5.43001H9.63561L12.0037 9.14226C12.7533 10.3174 12.8008 11.7486 12.1307 12.9709Z" fill="#9729EB"/>
<path d="M8.01616 10.075C7.94265 10.049 7.86762 10.022 7.79261 9.99388V8.666C7.99126 8.72446 8.12392 8.81924 8.12955 8.82334C8.25843 8.91988 8.44128 8.89427 8.53867 8.76574C8.63638 8.63676 8.61104 8.453 8.48207 8.35526C8.46487 8.34222 8.19245 8.14001 7.79261 8.06345V7.77187C7.79261 7.61005 7.66144 7.47888 7.49963 7.47888C7.33781 7.47888 7.20664 7.61005 7.20664 7.77187V8.06134C7.15701 8.07086 7.1067 8.0829 7.05572 8.09823C6.64337 8.22213 6.33515 8.57477 6.25133 9.01853C6.17483 9.42373 6.30465 9.81454 6.59014 10.0384C6.74507 10.1599 6.93864 10.2709 7.20664 10.3887V12.0879C6.97591 12.0733 6.82157 12.0208 6.56427 11.8525C6.42888 11.7639 6.24725 11.8019 6.15869 11.9373C6.07009 12.0727 6.10806 12.2543 6.24348 12.3429C6.61867 12.5883 6.87272 12.6579 7.20664 12.6743V12.9773C7.20664 13.1391 7.33781 13.2703 7.49963 13.2703C7.66144 13.2703 7.79261 13.1391 7.79261 12.9773V12.6439C8.42001 12.5064 8.78695 11.9829 8.86928 11.4931C8.97689 10.8529 8.64204 10.2962 8.01616 10.075ZM6.95177 9.57734C6.83915 9.489 6.79139 9.31652 6.82713 9.12722C6.86001 8.95313 6.97714 8.74321 7.20664 8.66553V9.73854C7.11031 9.68718 7.02338 9.6335 6.95177 9.57734ZM8.29139 11.396C8.2492 11.6469 8.07983 11.9131 7.79258 12.0307V10.6173C7.80213 10.6207 7.81119 10.624 7.82086 10.6275C8.34615 10.8131 8.31383 11.2626 8.29139 11.396Z" fill="#9729EB"/>
</g>
<defs>
<clipPath id="clip0">
<rect width="15" height="15" fill="white" transform="translate(0 0.5)"/>
</clipPath>
</defs>
</svg>
