<svg width="15" height="16" viewBox="0 0 15 16" fill="none" xmlns="http://www.w3.org/2000/svg">
<g clip-path="url(#clip0)">
<path d="M7.50009 8.6174C9.74163 8.6174 11.5588 6.80026 11.5588 4.55868C11.5588 2.31711 9.74166 0.5 7.50009 0.5C5.25852 0.5 3.44141 2.31714 3.44141 4.55871C3.44416 6.79912 5.25969 8.61465 7.50009 8.6174ZM7.50009 2.37325C8.70708 2.37325 9.68555 3.3517 9.68555 4.55871C9.68555 5.76573 8.7071 6.74418 7.50009 6.74418C6.29307 6.74418 5.31462 5.76573 5.31462 4.55871C5.31462 3.3517 6.2931 2.37325 7.50009 2.37325Z" fill="#FF9800"/>
<path d="M11.4757 10.5411C11.9168 10.2505 12.1826 9.75796 12.1832 9.22979C12.1894 8.79145 11.942 8.38894 11.5482 8.19637C11.1436 7.99426 10.6592 8.03978 10.2993 8.31377C8.63149 9.52972 6.36933 9.52972 4.70147 8.31377C4.34105 8.04121 3.85754 7.99576 3.45263 8.19637C3.05898 8.38891 2.81151 8.79098 2.81698 9.22915C2.81792 9.75723 3.0836 10.2497 3.52446 10.5404C4.09006 10.9166 4.70601 11.2109 5.354 11.4146C5.46391 11.4487 5.57733 11.4804 5.69432 11.5095L3.80735 13.3547C3.31234 13.835 3.30037 14.6256 3.78065 15.1206C4.26094 15.6156 5.05153 15.6276 5.54657 15.1473C5.55687 15.1373 5.567 15.1271 5.57695 15.1168L7.50016 13.1261L9.42712 15.1205C9.90699 15.6159 10.6976 15.6285 11.193 15.1486C11.6884 14.6687 11.701 13.8781 11.2211 13.3827C11.2111 13.3724 11.2008 13.3622 11.1905 13.3522L9.30659 11.5089C9.42355 11.4789 9.5374 11.4471 9.64813 11.4134C10.2954 11.2104 10.9108 10.9167 11.4757 10.5411Z" fill="#FF9800"/>
</g>
<defs>
<clipPath id="clip0">
<rect width="15" height="15" fill="white" transform="translate(0 0.5)"/>
</clipPath>
</defs>
</svg>
