<svg width="15" height="16" viewBox="0 0 15 16" fill="none" xmlns="http://www.w3.org/2000/svg">
<g clip-path="url(#clip0)">
<path d="M7.70421 0.5C3.59309 0.5 1.40674 3.13449 1.40674 6.00712C1.40674 7.33937 2.15115 9.00069 3.34276 9.52759C3.52371 9.60916 3.62215 9.57447 3.66246 9.40665C3.69809 9.27914 3.85466 8.66505 3.9306 8.37535C3.95404 8.28254 3.94185 8.20191 3.86685 8.11472C3.47121 7.6572 3.15713 6.82372 3.15713 6.04181C3.15713 4.03828 4.75001 2.09288 7.46045 2.09288C9.8043 2.09288 11.4441 3.61545 11.4441 5.79336C11.4441 8.25441 10.1418 9.95699 8.44955 9.95699C7.51295 9.95699 6.81542 9.22195 7.03668 8.31254C7.30388 7.22968 7.82796 6.06525 7.82796 5.28428C7.82796 4.58393 7.43232 4.00453 6.62416 4.00453C5.67068 4.00453 4.89721 4.94864 4.89721 6.21619C4.89721 7.02154 5.18222 7.56532 5.18222 7.56532C5.18222 7.56532 4.23905 11.3755 4.06373 12.0871C3.76747 13.2918 4.10405 15.2429 4.13311 15.4107C4.15092 15.5035 4.25499 15.5326 4.31312 15.4566C4.40594 15.3347 5.54599 13.7081 5.86569 12.5324C5.98194 12.104 6.45915 10.3667 6.45915 10.3667C6.77323 10.9339 7.67983 11.4092 8.6455 11.4092C11.5181 11.4092 13.5938 8.88444 13.5938 5.75117C13.5835 2.74729 11.0128 0.5 7.70421 0.5Z" fill="#D32F2F"/>
</g>
<defs>
<clipPath id="clip0">
<rect width="15" height="15" fill="white" transform="translate(0 0.5)"/>
</clipPath>
</defs>
</svg>
