<svg width="15" height="16" viewBox="0 0 15 16" fill="none" xmlns="http://www.w3.org/2000/svg">
<g clip-path="url(#clip0)">
<path d="M14.7337 8.07781C14.7337 4.1825 11.5312 1.02406 7.57969 1.02406C7.16344 1.02406 6.75469 1.05969 6.35625 1.12719C5.71688 0.730625 4.96031 0.5 4.14937 0.5C1.85719 0.5 0 2.33094 0 4.59125C0 5.34594 0.208125 6.05188 0.57 6.66031C0.475312 7.11781 0.424688 7.59313 0.424688 8.07781C0.424688 11.9741 3.62812 15.1325 7.57875 15.1325C8.02687 15.1325 8.46375 15.0913 8.88938 15.0144C9.47438 15.3238 10.1409 15.5 10.8516 15.5C13.1428 15.5 15 13.6681 15 11.4097C15 10.7572 14.8444 10.1403 14.5688 9.59281C14.6775 9.10344 14.7337 8.59813 14.7337 8.07781Z" fill="#03A9F4"/>
<path d="M11.249 11.4478C10.9181 11.91 10.4297 12.2757 9.79498 12.5344C9.16779 12.7913 8.41686 12.9235 7.55998 12.9235C6.53248 12.9235 5.67092 12.7453 4.99779 12.3928C4.51686 12.1369 4.12123 11.791 3.82029 11.3616C3.51561 10.9303 3.36279 10.5019 3.36279 10.0866C3.36279 9.82972 3.46311 9.60472 3.66092 9.42191C3.85686 9.2391 4.10811 9.14816 4.40811 9.14816C4.65373 9.14816 4.86561 9.22035 5.03811 9.36379C5.20217 9.50254 5.34373 9.70691 5.45717 9.96847C5.58373 10.2553 5.72154 10.4972 5.86686 10.6857C6.00842 10.8703 6.20998 11.0241 6.46779 11.145C6.72748 11.265 7.07717 11.3278 7.50654 11.3278C8.09811 11.3278 8.58373 11.2022 8.94748 10.9575C9.30467 10.7185 9.47717 10.4297 9.47717 10.0772C9.47717 9.79972 9.38623 9.58035 9.20154 9.40879C9.00654 9.22879 8.74967 9.0891 8.43842 8.99254C8.11311 8.89316 7.67154 8.78441 7.12592 8.67191C6.38248 8.51535 5.75154 8.33066 5.25092 8.11879C4.73811 7.90316 4.32373 7.60504 4.02186 7.23285C3.71436 6.85222 3.55873 6.37691 3.55873 5.81816C3.55873 5.28566 3.72186 4.80566 4.04436 4.39129C4.36404 3.97972 4.83092 3.65816 5.43373 3.43972C6.02717 3.22316 6.73311 3.11441 7.53279 3.11441C8.17123 3.11441 8.73279 3.18754 9.20248 3.33191C9.67404 3.47629 10.0715 3.67129 10.3837 3.91222C10.6987 4.15597 10.9331 4.41379 11.0794 4.68379C11.2275 4.95566 11.3034 5.2266 11.3034 5.48816C11.3034 5.74035 11.205 5.97004 11.01 6.16879C10.8131 6.36941 10.5656 6.47066 10.275 6.47066C10.0106 6.47066 9.80248 6.40597 9.65904 6.28129C9.52498 6.1641 9.38529 5.98129 9.23154 5.72066C9.05342 5.38691 8.83685 5.12347 8.58935 4.93691C8.34842 4.75597 7.94717 4.66597 7.39404 4.66597C6.88217 4.66597 6.46404 4.76722 6.15467 4.96785C5.85654 5.16004 5.71123 5.38129 5.71123 5.64379C5.71123 5.8041 5.75811 5.93816 5.85467 6.05347C5.95592 6.17722 6.09936 6.28316 6.28123 6.37316C6.46873 6.46597 6.66279 6.54097 6.85686 6.59347C7.05561 6.64785 7.38842 6.72941 7.84686 6.83347C8.42623 6.95535 8.95779 7.09316 9.42842 7.24222C9.90561 7.39129 10.3162 7.57597 10.6537 7.79254C10.9959 8.01285 11.2669 8.2941 11.46 8.6316C11.6531 8.97191 11.7506 9.3891 11.7506 9.87472C11.7497 10.455 11.5809 10.9847 11.249 11.4478Z" fill="#FAFAFA"/>
</g>
<defs>
<clipPath id="clip0">
<rect width="15" height="15" fill="white" transform="translate(0 0.5)"/>
</clipPath>
</defs>
</svg>
