<svg width="20" height="20" viewBox="0 0 20 20" fill="none" xmlns="http://www.w3.org/2000/svg">
<path d="M11.6666 1H8.33332C8.14934 1 8 1.14934 8 1.33332C8 1.5173 8.14934 1.66664 8.33332 1.66664H11.6666C11.8506 1.66664 12 1.5173 12 1.33332C12 1.14934 11.8506 1 11.6666 1Z" fill="#9729EB"/>
<path d="M14 1H13.6666C13.4826 1 13.3333 1.14934 13.3333 1.33332C13.3333 1.5173 13.4826 1.66664 13.6666 1.66664H14C14.1839 1.66664 14.3333 1.5173 14.3333 1.33332C14.3333 1.14934 14.1839 1 14 1Z" fill="#9729EB"/>
<path d="M10.414 17H9.58634C9.07934 17 8.66669 17.4127 8.66669 17.9196V18.0807C8.66669 18.5877 9.07934 19 9.58602 19H10.4137C10.9207 19 11.3333 18.5877 11.3333 18.0807V17.9196C11.3333 17.4127 10.9207 17 10.414 17ZM10.6667 18.0807C10.6667 18.22 10.5534 18.3333 10.414 18.3333H9.58634C9.44669 18.3333 9.33333 18.22 9.33333 18.0807V17.9196C9.33333 17.78 9.44665 17.6666 9.58634 17.6666H10.4137C10.5534 17.6666 10.6667 17.78 10.6667 17.9196V18.0807Z" fill="#9729EB"/>
<path d="M14.462 0H5.53831C4.87398 0 4.33331 0.540664 4.33331 1.205V18.795C4.33331 19.4593 4.87398 20 5.53831 20H14.4616C15.126 20 15.6666 19.4593 15.6666 18.7954V1.205C15.6667 0.540664 15.126 0 14.462 0ZM15 18.795C15 19.0917 14.7587 19.3333 14.462 19.3333H5.53831C5.24132 19.3333 4.99999 19.0916 4.99999 18.7953V1.205C4.99999 0.90832 5.24132 0.66668 5.53831 0.66668H14.4616C14.7586 0.66668 15 0.908359 15 1.205V18.795H15Z" fill="#9729EB"/>
<path d="M15.3333 2H4.66663C4.48265 2 4.33331 2.14934 4.33331 2.33332V16.3333C4.33331 16.5173 4.48265 16.6666 4.66663 16.6666H15.3333C15.5173 16.6666 15.6666 16.5173 15.6666 16.3333V2.33332C15.6666 2.14934 15.5173 2 15.3333 2ZM15 16H4.99995V2.66668H15V16Z" fill="#9729EB"/>
</svg>
