<svg width="15" height="16" viewBox="0 0 15 16" fill="none" xmlns="http://www.w3.org/2000/svg">
<g clip-path="url(#clip0)">
<path d="M7.5 15.5C11.6421 15.5 15 12.1421 15 8C15 3.85786 11.6421 0.5 7.5 0.5C3.35786 0.5 0 3.85786 0 8C0 12.1421 3.35786 15.5 7.5 15.5Z" fill="#039BE5"/>
<path d="M3.43192 7.83794L10.6632 5.04982C10.9988 4.92857 11.2919 5.13169 11.1832 5.63919L11.1838 5.63857L9.95254 11.4392C9.86129 11.8504 9.61692 11.9504 9.27504 11.7567L7.40004 10.3748L6.49567 11.2461C6.39567 11.3461 6.31129 11.4304 6.11754 11.4304L6.25067 9.52232L9.72567 6.38294C9.87692 6.24982 9.69192 6.17482 9.49254 6.30732L5.19817 9.01107L3.34692 8.43357C2.94504 8.30607 2.93629 8.03169 3.43192 7.83794Z" fill="white"/>
</g>
<defs>
<clipPath id="clip0">
<rect width="15" height="15" fill="white" transform="translate(0 0.5)"/>
</clipPath>
</defs>
</svg>
