<svg width="15" height="16" viewBox="0 0 15 16" fill="none" xmlns="http://www.w3.org/2000/svg">
<g clip-path="url(#clip0)">
<path d="M5.33471 8.27429C4.14526 8.27429 3.18432 9.23523 3.2019 10.413C3.21362 11.1688 3.62963 11.8251 4.24194 12.1913C4.03393 11.872 3.91088 11.494 3.90502 11.0868C3.88744 9.90906 4.84838 8.94812 6.03784 8.94812C6.27221 8.94812 6.4978 8.98621 6.70873 9.05359V6.69519C6.48901 6.66296 6.26342 6.64539 6.03784 6.64539C6.02612 6.64539 6.01733 6.64539 6.00561 6.64539V8.37976C5.79467 8.31238 5.56909 8.27429 5.33471 8.27429Z" fill="#F00044"/>
<path d="M10.4766 1.20312H10.459H9.84961C10.0254 2.08496 10.5205 2.85254 11.2119 3.37402C10.7578 2.77344 10.4824 2.02344 10.4766 1.20312Z" fill="#F00044"/>
<path d="M14.0625 4.79089C13.8311 4.79089 13.6084 4.76746 13.3887 4.72644V6.41687C12.5918 6.41687 11.8184 6.2616 11.0918 5.95105C10.623 5.75183 10.1865 5.49695 9.78516 5.18933L9.79687 10.4012C9.79102 11.5731 9.32812 12.6718 8.49023 13.5009C7.80762 14.1747 6.94336 14.6053 6.00586 14.743C5.78613 14.7753 5.56055 14.7928 5.33496 14.7928C4.33301 14.7928 3.37793 14.4677 2.60156 13.8671C2.68945 13.9725 2.7832 14.0751 2.88574 14.1747C3.72949 15.0067 4.84863 15.4667 6.04102 15.4667C6.2666 15.4667 6.49219 15.4491 6.71191 15.4169C7.64941 15.2792 8.51367 14.8485 9.19629 14.1747C10.0342 13.3456 10.4971 12.2469 10.5029 11.0751L10.459 5.86316C10.8574 6.17078 11.2939 6.42859 11.7656 6.62488C12.4951 6.9325 13.2686 7.0907 14.0625 7.0907" fill="#F00044"/>
<path d="M2.87697 7.94324C3.71193 7.11414 4.82228 6.65417 6.00587 6.64539V6.02136C5.78615 5.98914 5.56056 5.97156 5.33497 5.97156C4.13966 5.97156 3.01759 6.43152 2.17384 7.26941C1.34474 8.09265 0.870131 9.21765 0.87306 10.3866C0.87306 11.5643 1.33888 12.6688 2.1797 13.5038C2.31447 13.6356 2.45216 13.7587 2.59865 13.87C1.93654 13.0819 1.57619 12.0975 1.57326 11.0604C1.57619 9.89148 2.04787 8.76648 2.87697 7.94324Z" fill="#08FFF9"/>
<path d="M13.3887 4.72833V4.10138H13.3828C12.5684 4.10138 11.8184 3.83185 11.2148 3.37482C11.7393 4.06622 12.5068 4.55841 13.3887 4.72833Z" fill="#08FFF9"/>
<path d="M5.91797 13.1621C6.19629 13.1768 6.46289 13.1387 6.70898 13.0596C7.55859 12.7812 8.1709 11.9902 8.1709 11.0586L8.17383 7.57227V1.20312H9.84961C9.80566 0.983398 9.78223 0.760742 9.7793 0.529297H7.4707V6.89551L7.46777 10.3818C7.46777 11.3135 6.85547 12.1045 6.00586 12.3828C5.75977 12.4648 5.49316 12.5029 5.21484 12.4854C4.86035 12.4648 4.5293 12.3594 4.24219 12.1895C4.60254 12.7461 5.21777 13.124 5.91797 13.1621Z" fill="#08FFF9"/>
<path d="M6.00587 14.7441C6.94337 14.6064 7.80763 14.1758 8.49025 13.502C9.32814 12.6729 9.79103 11.5742 9.79689 10.4023L9.78517 5.19043C10.1836 5.49805 10.6201 5.75586 11.0918 5.95215C11.8213 6.25977 12.5947 6.41797 13.3887 6.41797V4.72754C12.5068 4.55762 11.7393 4.06543 11.2149 3.37402C10.5234 2.85254 10.0254 2.08496 9.85255 1.20312H8.17384V7.56934L8.17091 11.0557C8.17091 11.9873 7.55861 12.7783 6.709 13.0566C6.4629 13.1387 6.1963 13.1768 5.91798 13.1592C5.21486 13.1211 4.60255 12.7432 4.2422 12.1895C3.6299 11.8262 3.21388 11.167 3.20216 10.4111C3.18458 9.2334 4.14552 8.27246 5.33497 8.27246C5.56935 8.27246 5.79493 8.31055 6.00587 8.37793V6.64356C4.82228 6.65234 3.71193 7.11231 2.87697 7.94141C2.04787 8.76465 1.57326 9.88965 1.57619 11.0557C1.57619 12.0928 1.93654 13.0771 2.60158 13.8652C3.38087 14.4658 4.33302 14.791 5.33497 14.791C5.56056 14.7939 5.78615 14.7764 6.00587 14.7441Z" fill="black"/>
</g>
<defs>
<clipPath id="clip0">
<rect width="15" height="15" fill="white" transform="translate(0 0.5)"/>
</clipPath>
</defs>
</svg>
