<svg width="15" height="16" viewBox="0 0 15 16" fill="none" xmlns="http://www.w3.org/2000/svg">
<g clip-path="url(#clip0)">
<path d="M11.25 11.75H7.5C6.46594 11.75 5.625 10.9091 5.625 9.875V8.9375H11.25C12.285 8.9375 13.125 8.0975 13.125 7.0625C13.125 6.0275 12.285 5.1875 11.25 5.1875H5.625V2.375C5.625 1.34 4.785 0.5 3.75 0.5C2.715 0.5 1.875 1.34 1.875 2.375V9.875C1.875 12.9772 4.39781 15.5 7.5 15.5H11.25C12.285 15.5 13.125 14.66 13.125 13.625C13.125 12.59 12.285 11.75 11.25 11.75Z" fill="#03A9F4"/>
</g>
<defs>
<clipPath id="clip0">
<rect width="15" height="15" fill="white" transform="translate(0 0.5)"/>
</clipPath>
</defs>
</svg>
