<svg width="15" height="16" viewBox="0 0 15 16" fill="none" xmlns="http://www.w3.org/2000/svg">
<g clip-path="url(#clip0)">
<path d="M14.4718 9.18356C14.9193 5.41668 14.2568 3.03856 13.0618 1.96293L13.0624 1.96231C11.1337 0.125431 4.61993 -0.146444 2.31243 2.04481C1.27618 3.11668 0.911178 4.68981 0.871178 6.63731C0.831178 8.58543 0.783678 12.2348 4.1843 13.2248H4.18743L4.1843 14.7367C4.1843 14.7367 4.16118 15.3492 4.55243 15.4723C4.99993 15.6173 5.20243 15.3329 6.5943 13.6704C8.9218 13.8723 10.7093 13.4098 10.9124 13.3423C11.3824 13.1848 14.0418 12.8329 14.4718 9.18356ZM6.82368 12.6067C6.82368 12.6067 5.35055 14.4436 4.89243 14.9204C4.74243 15.0754 4.57805 15.0611 4.58055 14.7536C4.58055 14.5517 4.5918 12.2436 4.5918 12.2436C1.70868 11.4173 1.87868 8.30981 1.90993 6.68418C1.94118 5.05793 2.23868 3.72606 3.11618 2.82918C5.14055 0.931056 10.8512 1.35543 12.3062 2.72293C14.0849 4.29981 13.4518 8.75481 13.4556 8.90668C13.0899 11.9529 10.9349 12.1461 10.5387 12.2779C10.3693 12.3342 8.79743 12.7386 6.82368 12.6067Z" fill="#8E24AA"/>
<path d="M7.63896 3.186C7.39834 3.186 7.39834 3.561 7.63896 3.56412C9.50584 3.5785 11.0433 4.87975 11.0602 7.26662C11.0602 7.5185 11.429 7.51537 11.4258 7.2635H11.4252C11.4052 4.69162 9.72646 3.20037 7.63896 3.186Z" fill="#8E24AA"/>
<path d="M10.0941 6.87083C10.0885 7.11958 10.4566 7.13145 10.4597 6.87958C10.4904 5.46145 9.61598 4.29333 7.97284 4.1702C7.73222 4.1527 7.70722 4.53083 7.94722 4.54833C9.37223 4.65645 10.1229 5.62895 10.0941 6.87083Z" fill="#8E24AA"/>
<path d="M9.70038 8.4838C9.39163 8.30505 9.07726 8.4163 8.94726 8.59193L8.67538 8.9438C8.53726 9.12255 8.27913 9.0988 8.27913 9.0988C6.39539 8.60068 5.89164 6.62943 5.89164 6.62943C5.89164 6.62943 5.86851 6.36255 6.04101 6.21943L6.38101 5.93818C6.55101 5.80318 6.65851 5.47818 6.48539 5.1588C6.02289 4.32318 5.71226 4.03505 5.55414 3.8138C5.38789 3.60568 5.13789 3.5588 4.87789 3.69943H4.87227C4.33164 4.01568 3.73977 4.60755 3.92914 5.21693C4.25227 5.85943 4.84602 7.90755 6.73851 9.45505C7.62788 10.1869 9.03538 10.9369 9.63288 11.1101L9.63851 11.1188C10.2273 11.3151 10.7998 10.7001 11.1054 10.1432V10.1388C11.241 9.86943 11.196 9.61443 10.9979 9.44755C10.6466 9.10505 10.1166 8.72693 9.70038 8.4838Z" fill="#8E24AA"/>
<path d="M8.23035 5.56518C8.83098 5.60018 9.12224 5.91393 9.15349 6.55831C9.16474 6.81019 9.53037 6.79269 9.51911 6.54081C9.47911 5.69956 9.04036 5.2308 8.25035 5.18705C8.00972 5.17268 7.98722 5.5508 8.23035 5.56518Z" fill="#8E24AA"/>
</g>
<defs>
<clipPath id="clip0">
<rect width="15" height="15" fill="white" transform="translate(0 0.5)"/>
</clipPath>
</defs>
</svg>
