<svg width="41" height="40" viewBox="0 0 41 40" fill="none" xmlns="http://www.w3.org/2000/svg">
<g clip-path="url(#clip0)">
<path d="M40.1406 28.9456C40.0331 28.7656 39.368 27.3205 36.1678 24.3502C32.8175 21.24 33.2676 21.7451 37.3029 16.3672C39.7605 13.0919 40.7431 11.0918 40.4356 10.2367C40.1431 9.42164 38.3354 9.63666 38.3354 9.63666L32.325 9.67166C32.325 9.67166 31.88 9.61165 31.5474 9.80917C31.2249 10.0042 31.0174 10.4542 31.0174 10.4542C31.0174 10.4542 30.0648 12.9894 28.7947 15.1446C26.117 19.6924 25.0445 19.9324 24.6069 19.6499C23.5893 18.9924 23.8444 17.0047 23.8444 15.5946C23.8444 11.1868 24.5119 9.34914 22.5418 8.8741C21.8867 8.71659 21.4067 8.61158 19.7341 8.59408C17.5889 8.57158 15.7713 8.60158 14.7437 9.10412C14.0586 9.43914 13.5311 10.1867 13.8536 10.2292C14.2511 10.2817 15.1512 10.4717 15.6288 11.1218C16.2463 11.9593 16.2238 13.8445 16.2238 13.8445C16.2238 13.8445 16.5788 19.0324 15.3962 19.6774C14.5837 20.1199 13.4711 19.2174 11.0834 15.0896C9.86082 12.9769 8.93575 10.6392 8.93575 10.6392C8.93575 10.6392 8.75824 10.2042 8.44072 9.97168C8.05569 9.68916 7.51565 9.59915 7.51565 9.59915L1.80023 9.63416C1.80023 9.63416 0.942661 9.65916 0.627638 10.0317C0.347617 10.3642 0.605136 11.0493 0.605136 11.0493C0.605136 11.0493 5.08047 21.5175 10.1458 26.7954C14.7937 31.6333 20.0691 31.3158 20.0691 31.3158H22.4593C22.4593 31.3158 23.1818 31.2358 23.5493 30.8382C23.8894 30.4732 23.8769 29.7882 23.8769 29.7882C23.8769 29.7882 23.8294 26.5804 25.3195 26.1079C26.7871 25.6428 28.6722 29.2081 30.6699 30.5807C32.18 31.6183 33.3276 31.3908 33.3276 31.3908L38.6705 31.3158C38.6705 31.3158 41.4657 31.1433 40.1406 28.9456Z" fill="url(#paint0_diamond)"/>
</g>
<defs>
<radialGradient id="paint0_diamond" cx="0" cy="0" r="1" gradientUnits="userSpaceOnUse" gradientTransform="translate(40.4971 8.58887) rotate(90) scale(43.3609 75.995)">
<stop stop-color="#85D2FE"/>
<stop offset="0.50984" stop-color="#A04DE1"/>
<stop offset="1" stop-color="#9E3BEA"/>
</radialGradient>
<clipPath id="clip0">
<rect width="40" height="40" fill="white" transform="translate(0.5)"/>
</clipPath>
</defs>
</svg>
