<svg width="15" height="16" viewBox="0 0 15 16" fill="none" xmlns="http://www.w3.org/2000/svg">
<g clip-path="url(#clip0)">
<path d="M7.33949 12.2421H8.23581C8.23581 12.2421 8.50677 12.2121 8.64459 12.0631C8.7721 11.9262 8.76741 11.6693 8.76741 11.6693C8.76741 11.6693 8.7496 10.4664 9.30839 10.2892C9.85874 10.1148 10.5657 11.4518 11.3148 11.9665C11.8811 12.3556 12.3114 12.2703 12.3114 12.2703L14.315 12.2421C14.315 12.2421 15.3632 12.1775 14.8663 11.3533C14.826 11.2858 14.5766 10.7439 13.3765 9.63008C12.1202 8.46374 12.2889 8.65313 13.8022 6.63642C14.7238 5.4082 15.0922 4.65815 14.9769 4.3375C14.8672 4.03185 14.1894 4.11248 14.1894 4.11248L11.9355 4.12561C11.9355 4.12561 11.7686 4.1031 11.6439 4.17717C11.5229 4.2503 11.4451 4.41907 11.4451 4.41907C11.4451 4.41907 11.0879 5.36976 10.6116 6.17795C9.60747 7.88338 9.20525 7.97339 9.04118 7.86745C8.65959 7.62087 8.75522 6.8755 8.75522 6.34671C8.75522 4.69377 9.00555 4.00466 8.26675 3.82652C8.02111 3.76745 7.84109 3.72808 7.21386 3.72151C6.40943 3.71308 5.72781 3.72433 5.34247 3.91278C5.08558 4.03841 4.88775 4.31875 5.0087 4.33468C5.15777 4.35437 5.4953 4.42563 5.67437 4.6694C5.90595 4.98348 5.89751 5.69041 5.89751 5.69041C5.89751 5.69041 6.03065 7.63587 5.58718 7.87776C5.28247 8.04371 4.86525 7.70525 3.96987 6.15732C3.5114 5.36507 3.1645 4.48845 3.1645 4.48845C3.1645 4.48845 3.09793 4.32531 2.97886 4.23811C2.83448 4.13217 2.63196 4.09842 2.63196 4.09842L0.488682 4.11154C0.488682 4.11154 0.167096 4.12092 0.0489629 4.26062C-0.0560448 4.38531 0.0405247 4.64221 0.0405247 4.64221C0.0405247 4.64221 1.71877 8.56781 3.61829 10.547C5.36122 12.3612 7.33949 12.2421 7.33949 12.2421Z" fill="#1E88E5"/>
</g>
<defs>
<clipPath id="clip0">
<rect width="15" height="15" fill="white" transform="translate(0 0.5)"/>
</clipPath>
</defs>
</svg>
