<svg width="15" height="16" viewBox="0 0 15 16" fill="none" xmlns="http://www.w3.org/2000/svg">
<path d="M10.705 5.08875C10.0069 3.09126 7.90251 1.75002 5.46876 1.75002C2.45312 1.75002 0 3.85251 0 6.43752C0.0253711 7.86969 0.744551 9.20039 1.92876 10.0063L1.28314 11.2975C1.20448 11.4511 1.26524 11.6394 1.41888 11.7181C1.51438 11.767 1.62832 11.7635 1.72063 11.7088L3.37438 10.7631C3.82304 10.9216 4.28836 11.0281 4.76127 11.0806C4.93271 11.1004 5.08772 10.9774 5.1075 10.806C5.11163 10.7701 5.10952 10.7339 5.10129 10.6988C5.0361 10.429 5.00215 10.1526 5.00004 9.87504C5.00004 7.46317 7.38316 5.50004 10.3125 5.50004L10.4044 5.50441C10.506 5.50341 10.6014 5.45569 10.6632 5.37503C10.7231 5.29218 10.7387 5.18528 10.705 5.08875Z" fill="#4CAF50"/>
<path d="M3.4375 3.62502C2.91973 3.62502 2.5 4.04475 2.5 4.56252C2.5 5.08028 2.91973 5.50002 3.4375 5.50002C3.95526 5.50002 4.37499 5.08028 4.37499 4.56252C4.37499 4.04475 3.95526 3.62502 3.4375 3.62502Z" fill="#FAFAFA"/>
<path d="M7.18751 3.62502C6.66974 3.62502 6.25 4.04475 6.25 4.56252C6.25 5.08028 6.66974 5.50002 7.18751 5.50002C7.70528 5.50002 8.12502 5.08028 8.12502 4.56252C8.12502 4.04475 7.70528 3.62502 7.18751 3.62502Z" fill="#FAFAFA"/>
<path d="M15 9.875C15 7.80687 12.8975 6.125 10.3125 6.125C7.72749 6.125 5.625 7.80687 5.625 9.875C5.625 11.9431 7.72749 13.625 10.3125 13.625C10.7974 13.6248 11.2804 13.5635 11.75 13.4425L13.2994 14.2169C13.4537 14.2941 13.6414 14.2317 13.7187 14.0773C13.7587 13.9974 13.7626 13.9042 13.7294 13.8213L13.305 12.7587C14.3192 12.1439 14.9562 11.0602 15 9.875Z" fill="#4CAF50"/>
<path d="M8.74999 8C8.40481 8 8.125 8.27981 8.125 8.62499C8.125 8.97017 8.40481 9.24998 8.74999 9.24998C9.09517 9.24998 9.37498 8.97017 9.37498 8.62499C9.37498 8.27981 9.09517 8 8.74999 8Z" fill="#FAFAFA"/>
<path d="M11.875 8C11.5298 8 11.25 8.27981 11.25 8.62499C11.25 8.97017 11.5298 9.24998 11.875 9.24998C12.2202 9.24998 12.5 8.97017 12.5 8.62499C12.5 8.27981 12.2202 8 11.875 8Z" fill="#FAFAFA"/>
</svg>
