<svg width="15" height="16" viewBox="0 0 15 16" fill="none" xmlns="http://www.w3.org/2000/svg">
<g clip-path="url(#clip0)">
<path d="M7.50187 0.5H7.49813C3.36281 0.5 0 3.86375 0 8C0 9.64062 0.52875 11.1613 1.42781 12.3959L0.493125 15.1822L3.37594 14.2606C4.56187 15.0463 5.97656 15.5 7.50187 15.5C11.6372 15.5 15 12.1353 15 8C15 3.86469 11.6372 0.5 7.50187 0.5Z" fill="#4CAF50"/>
<path d="M11.866 11.0891C11.6851 11.6001 10.967 12.0238 10.3941 12.1476C10.0023 12.231 9.49039 12.2976 7.76727 11.5832C5.5632 10.6701 4.14383 8.4304 4.0332 8.28508C3.92727 8.13977 3.14258 7.09915 3.14258 6.0229C3.14258 4.94665 3.68914 4.42258 3.90945 4.19758C4.09039 4.0129 4.38945 3.92852 4.67633 3.92852C4.76914 3.92852 4.85258 3.93321 4.92758 3.93696C5.14789 3.94633 5.25852 3.95946 5.40383 4.30727C5.58477 4.74321 6.02539 5.81946 6.07789 5.93008C6.13133 6.04071 6.18477 6.19071 6.10977 6.33602C6.03945 6.48602 5.97758 6.55258 5.86695 6.68008C5.75633 6.80758 5.65133 6.90508 5.5407 7.04196C5.43945 7.16102 5.32508 7.28852 5.45258 7.50883C5.58008 7.72446 6.0207 8.44352 6.66945 9.02102C7.50664 9.76633 8.18539 10.0045 8.4282 10.1057C8.60914 10.1807 8.82477 10.1629 8.95695 10.0223C9.12477 9.84133 9.33195 9.54133 9.54289 9.24602C9.69289 9.03415 9.88227 9.00789 10.081 9.08289C10.2835 9.15321 11.3551 9.68289 11.5754 9.79258C11.7957 9.90321 11.941 9.95571 11.9945 10.0485C12.047 10.1413 12.047 10.5773 11.866 11.0891Z" fill="#FAFAFA"/>
</g>
<defs>
<clipPath id="clip0">
<rect width="15" height="15" fill="white" transform="translate(0 0.5)"/>
</clipPath>
</defs>
</svg>
