<svg width="15" height="16" viewBox="0 0 15 16" fill="none" xmlns="http://www.w3.org/2000/svg">
<path d="M14.3625 3.8375C13.9556 3.11375 13.5141 2.98063 12.615 2.93C11.7169 2.86906 9.45844 2.84375 7.50187 2.84375C5.54156 2.84375 3.28219 2.86906 2.385 2.92906C1.48781 2.98063 1.04531 3.11281 0.634687 3.8375C0.215625 4.56031 0 5.80531 0 7.99719C0 7.99906 0 8 0 8C0 8.00187 0 8.00281 0 8.00281V8.00469C0 10.1872 0.215625 11.4416 0.634687 12.1569C1.04531 12.8806 1.48687 13.0119 2.38406 13.0728C3.28219 13.1253 5.54156 13.1562 7.50187 13.1562C9.45844 13.1562 11.7169 13.1253 12.6159 13.0737C13.515 13.0128 13.9566 12.8816 14.3634 12.1578C14.7863 11.4425 15 10.1881 15 8.00562C15 8.00562 15 8.00281 15 8.00094C15 8.00094 15 7.99906 15 7.99813C15 5.80531 14.7863 4.56031 14.3625 3.8375Z" fill="#F44336"/>
<path d="M5.625 10.8125V5.1875L10.3125 8L5.625 10.8125Z" fill="#FAFAFA"/>
</svg>
